<svg width="1249" height="581" viewBox="0 0 1249 581" fill="none" xmlns="http://www.w3.org/2000/svg">
<path d="M412.5 270.5L376 257H355.5L323 270.5L316 305L350 330.5L412.5 325V270.5Z" fill="#F4CA4E"/>
<path d="M98.4 237C98.4 214.4 102.7 194.8 111.3 178.2C120.1 161.4 133 148.4 150 139.2C167.2 130 188.3 125.4 213.3 125.4C223.5 125.4 232.6 126.2 240.6 127.8C248.8 129.4 255.6 131.5 261 134.1V171.9H258C252.8 168.9 246.5 166.6 239.1 165C231.7 163.2 223.8 162.3 215.4 162.3C199.4 162.3 186 165.2 175.2 171C164.4 176.8 156.2 185.3 150.6 196.5C145 207.5 142.2 221 142.2 237C142.2 253 145 266.6 150.6 277.8C156.2 288.8 164.4 297.2 175.2 303C186 308.8 199.4 311.7 215.4 311.7C223.8 311.7 231.7 310.9 239.1 309.3C246.5 307.5 252.8 305.1 258 302.1H261V339.9C255.6 342.5 248.8 344.6 240.6 346.2C232.6 347.8 223.5 348.6 213.3 348.6C188.3 348.6 167.2 344.1 150 335.1C133 326.1 120.1 313.3 111.3 296.7C102.7 279.9 98.4 260 98.4 237ZM368.224 348.6C343.224 348.6 324.324 344.5 311.524 336.3C298.924 328.1 292.624 314.8 292.624 296.4C292.624 284.6 295.524 274.9 301.324 267.3C307.324 259.7 315.624 254.1 326.224 250.5C337.024 246.7 349.424 244.8 363.424 244.8C372.024 244.8 379.524 245.5 385.924 246.9C392.324 248.1 398.124 249.4 403.324 250.8V277.8C399.324 276.4 394.224 275.2 388.024 274.2C381.824 273 375.824 272.4 370.024 272.4C357.024 272.4 347.324 274.2 340.924 277.8C334.724 281.4 331.624 287.5 331.624 296.1C331.624 304.3 334.724 310.2 340.924 313.8C347.124 317.4 356.024 319.2 367.624 319.2C374.624 319.2 381.324 318.6 387.724 317.4C394.324 316 400.124 313.9 405.124 311.1L399.124 322.8C398.324 320.4 397.624 318 397.024 315.6C396.424 313.2 395.924 310.7 395.524 308.1C395.324 305.5 395.124 302.6 394.924 299.4C394.924 296 394.924 291.9 394.924 287.1V246C394.924 235.8 393.324 228.1 390.124 222.9C386.924 217.7 382.224 214.3 376.024 212.7C369.824 210.9 362.124 210 352.924 210C344.524 210 336.424 210.9 328.624 212.7C320.824 214.3 314.524 216.2 309.724 218.4H306.724V185.1C313.924 182.5 322.024 180.6 331.024 179.4C340.024 178 349.024 177.3 358.024 177.3C369.224 177.3 379.524 178.3 388.924 180.3C398.524 182.3 406.824 185.8 413.824 190.8C420.824 195.8 426.224 202.9 430.024 212.1C434.024 221.1 436.024 232.8 436.024 247.2V285C436.024 289.2 436.024 294.5 436.024 300.9C436.224 307.1 436.524 313.2 436.924 319.2C437.324 325.2 437.924 330 438.724 333.6L437.824 336C431.024 338.6 423.624 340.9 415.624 342.9C407.824 344.7 399.824 346.1 391.624 347.1C383.424 348.1 375.624 348.6 368.224 348.6ZM484.207 345V240.3C484.207 236.3 484.107 231.2 483.907 225C483.707 218.6 483.407 212.4 483.007 206.4C482.807 200.2 482.207 195.3 481.207 191.7L482.107 189.3C487.707 187.3 494.207 185.5 501.607 183.9C509.207 182.3 517.107 181.1 525.307 180.3C533.707 179.3 542.107 178.8 550.507 178.8C554.107 178.8 558.007 178.9 562.207 179.1C566.407 179.3 570.607 179.7 574.807 180.3V214.5H572.107C569.107 213.7 565.707 213.2 561.907 213C558.107 212.6 554.407 212.4 550.807 212.4C544.407 212.4 538.107 212.9 531.907 213.9C525.707 214.9 520.407 216.1 516.007 217.5L522.307 207.9C524.907 213.3 526.207 222.6 526.207 235.8V345H484.207ZM666.968 266.7H629.768V230.1H664.868C674.868 230.1 682.468 227.9 687.668 223.5C693.068 219.1 697.168 213.2 699.968 205.8L731.168 129H774.068V132L738.368 217.2C734.568 226.4 729.368 234.8 722.768 242.4C716.368 250 708.468 256 699.068 260.4C689.868 264.6 679.168 266.7 666.968 266.7ZM606.668 345V129H649.568V345H606.668ZM712.868 242.7L776.168 342V345H729.968L678.368 260.1L712.868 242.7ZM831.574 155.4C824.774 155.4 819.074 153.4 814.474 149.4C810.074 145.2 807.874 139.4 807.874 132C807.874 124.8 810.074 119.2 814.474 115.2C819.074 111 824.774 108.9 831.574 108.9C838.574 108.9 844.274 111 848.674 115.2C853.074 119.2 855.274 124.8 855.274 132C855.274 139.4 853.074 145.2 848.674 149.4C844.274 153.4 838.574 155.4 831.574 155.4ZM810.574 345V231.9C810.574 227.9 810.474 222.8 810.274 216.6C810.074 210.4 809.774 204.3 809.374 198.3C809.174 192.1 808.574 187.2 807.574 183.6L808.474 181.2H852.574V345H810.574ZM893.545 303.6H895.945C903.145 306.6 911.545 309.2 921.145 311.4C930.945 313.6 940.745 314.7 950.545 314.7C953.945 314.7 957.645 314.6 961.645 314.4C965.645 314 969.345 313.3 972.745 312.3C976.345 311.3 979.245 309.5 981.445 306.9C983.845 304.3 985.045 300.8 985.045 296.4C985.045 290.8 982.745 286.9 978.145 284.7C973.545 282.5 966.445 280.6 956.845 279L942.745 276.6C926.745 273.8 914.445 269 905.845 262.2C897.245 255.2 892.945 244.9 892.945 231.3C892.945 221.5 895.545 212.6 900.745 204.6C906.145 196.6 914.445 190.3 925.645 185.7C937.045 180.9 951.945 178.5 970.345 178.5C978.945 178.5 986.845 179.1 994.045 180.3C1001.45 181.3 1008.45 182.8 1015.05 184.8V219.3H1012.65C1005.05 216.3 997.745 214.2 990.745 213C983.745 211.8 976.545 211.2 969.145 211.2C957.945 211.2 949.145 212.6 942.745 215.4C936.545 218 933.445 222.7 933.445 229.5C933.445 234.7 935.745 238.4 940.345 240.6C945.145 242.8 952.045 244.7 961.045 246.3L974.845 248.7C984.245 250.1 992.745 252.6 1000.35 256.2C1008.15 259.8 1014.35 264.8 1018.95 271.2C1023.55 277.4 1025.85 285.4 1025.85 295.2C1025.85 312.6 1019.35 325.7 1006.35 334.5C993.545 343.1 974.145 347.4 948.145 347.4C938.545 347.4 928.945 346.6 919.345 345C909.745 343.4 901.145 341.4 893.545 339V303.6ZM1051.75 303.6H1054.15C1061.35 306.6 1069.75 309.2 1079.35 311.4C1089.15 313.6 1098.95 314.7 1108.75 314.7C1112.15 314.7 1115.85 314.6 1119.85 314.4C1123.85 314 1127.55 313.3 1130.95 312.3C1134.55 311.3 1137.45 309.5 1139.65 306.9C1142.05 304.3 1143.25 300.8 1143.25 296.4C1143.25 290.8 1140.95 286.9 1136.35 284.7C1131.75 282.5 1124.65 280.6 1115.05 279L1100.95 276.6C1084.95 273.8 1072.65 269 1064.05 262.2C1055.45 255.2 1051.15 244.9 1051.15 231.3C1051.15 221.5 1053.75 212.6 1058.95 204.6C1064.35 196.6 1072.65 190.3 1083.85 185.7C1095.25 180.9 1110.15 178.5 1128.55 178.5C1137.15 178.5 1145.05 179.1 1152.25 180.3C1159.65 181.3 1166.65 182.8 1173.25 184.8V219.3H1170.85C1163.25 216.3 1155.95 214.2 1148.95 213C1141.95 211.8 1134.75 211.2 1127.35 211.2C1116.15 211.2 1107.35 212.6 1100.95 215.4C1094.75 218 1091.65 222.7 1091.65 229.5C1091.65 234.7 1093.95 238.4 1098.55 240.6C1103.35 242.8 1110.25 244.7 1119.25 246.3L1133.05 248.7C1142.45 250.1 1150.95 252.6 1158.55 256.2C1166.35 259.8 1172.55 264.8 1177.15 271.2C1181.75 277.4 1184.05 285.4 1184.05 295.2C1184.05 312.6 1177.55 325.7 1164.55 334.5C1151.75 343.1 1132.35 347.4 1106.35 347.4C1096.75 347.4 1087.15 346.6 1077.55 345C1067.95 343.4 1059.35 341.4 1051.75 339V303.6Z" fill="white"/>
<path d="M211.611 399.39L1178 370L113 503L142.33 473.112L952.964 383.449L181.775 432.266L211.611 399.39Z" fill="#F4CA4E"/>
</svg>
